<svg width="100%" height="100%" id="svg" viewBox="0 0 1440 390" xmlns="http://www.w3.org/2000/svg" class="transition duration-300 ease-in-out delay-150"><defs><linearGradient id="gradient" x1="50%" y1="100%" x2="50%" y2="0%"><stop offset="5%" stop-color="#eb144c"></stop><stop offset="95%" stop-color="#8ed1fc"></stop></linearGradient></defs><path d="M 0,400 L 0,0 C 153.33333333333331,10.399999999999991 306.66666666666663,20.799999999999983 448,55 C 589.3333333333334,89.20000000000002 718.6666666666667,147.20000000000002 882,142 C 1045.3333333333333,136.79999999999998 1242.6666666666665,68.39999999999999 1440,0 L 1440,400 L 0,400 Z" stroke="none" stroke-width="0" fill="url(#gradient)" fill-opacity="0.53" class="transition-all duration-300 ease-in-out delay-150 path-0"></path><defs><linearGradient id="gradient" x1="50%" y1="100%" x2="50%" y2="0%"><stop offset="5%" stop-color="#eb144c"></stop><stop offset="95%" stop-color="#8ed1fc"></stop></linearGradient></defs><path d="M 0,400 L 0,0 C 151.33333333333331,93.6 302.66666666666663,187.2 468,227 C 633.3333333333334,266.8 812.6666666666667,252.8 977,206 C 1141.3333333333333,159.2 1290.6666666666665,79.6 1440,0 L 1440,400 L 0,400 Z" stroke="none" stroke-width="0" fill="url(#gradient)" fill-opacity="1" class="transition-all duration-300 ease-in-out delay-150 path-1"></path></svg>