<svg xmlns="http://www.w3.org/2000/svg"  viewBox="0 0 64 64" width="64px" height="64px"><g data-name="22-Cooker"><polygon fill="#918778" points="39 6 43 14 21 14 25 6 39 6"/><rect width="14" height="5" x="25" y="1" fill="#b56e2f"/><polygon fill="#b56e2f" points="45 14 45 18 19 18 19 14 21 14 43 14 45 14"/><polygon fill="#75806d" points="12 22 12 31 7 31 7 22 8 22 11 22 12 22"/><polygon fill="#75806d" points="57 22 57 31 52 31 52 22 53 22 56 22 57 22"/><path fill="#ded9d0" d="M29,23v6a2.006,2.006,0,0,1-2,2H21a2.006,2.006,0,0,1-2-2V23Z"/><path fill="#ded9d0" d="M45,23v6a2.006,2.006,0,0,1-2,2H37a2.006,2.006,0,0,1-2-2V23Z"/><rect width="10" height="14" x="5" y="35" fill="#a0968c"/><rect width="10" height="4" x="27" y="43" fill="#75806d"/><polygon fill="#ded9d0" points="45 31 45 39 19 39 19 31 21 31 27 31 37 31 43 31 45 31"/><path fill="#a0968c" d="M45,39V63H19V39ZM41,59V43H23V59Z"/><rect width="18" height="11" x="45" y="52" fill="#b56e2f"/><rect width="18" height="10" x="45" y="42" fill="#b56e2f"/><polygon fill="#b56e2f" points="57 31 63 31 63 42 45 42 45 39 45 31 52 31 57 31"/><path fill="#b56e2f" d="M19,39V63H1V31H19ZM15,49V35H5V49Z"/><polygon fill="#f7f3eb" points="41 43 41 59 23 59 23 43 27 43 27 47 37 47 37 43 41 43"/><polygon fill="#d6cec1" points="37 43 37 45 39 45 39 57 25 57 25 45 27 45 27 43 23 43 23 59 41 59 41 43 37 43"/><rect width="10" height="2" x="27" y="47" fill="#d6cec1"/><path fill="#586957" d="M54,26V22H52v9h5V29A3,3,0,0,1,54,26Z"/><polygon fill="#fffbf3" points="39 47 39 45 37 45 37 47 37 49 39 47"/><polygon fill="#ede9e1" points="25 51 27 49 27 47 27 45 25 45 25 51"/><polygon fill="#f7f3eb" points="37 49 29 57 35 57 39 53 39 47 37 49"/><polygon fill="#fffbf3" points="27 49 25 51 25 57 29 57 37 49 27 49"/><polygon fill="#ede9e1" points="39 57 39 53 35 57 39 57"/><polygon fill="#cdc3b4" points="39 53 41 51 41 45 39 47 39 53"/><polygon fill="#d6cec1" points="39 47 41 45 41 43 37 43 37 45 39 45 39 47"/><polygon fill="#d6cec1" points="25 57 25 51 23 53 23 59 27 59 29 57 25 57"/><polygon fill="#cdc3b4" points="29 57 27 59 33 59 35 57 29 57"/><polygon fill="#beb4aa" points="25 45 27 45 27 43 23 43 23 53 25 51 25 45"/><polygon fill="#beb4aa" points="39 53 39 57 35 57 33 59 41 59 41 51 39 53"/><polygon fill="#d6cec1" points="29 47 27 47 27 49 29 47"/><polygon fill="#d6cec1" points="37 49 37 47 29 47 27 49 37 49"/><path fill="#586957" d="M29,43v2a1,1,0,0,0,1,1h4a1,1,0,0,0,1-1V43h2v4H27V43Z"/><path fill="#73482e" d="M47,31v7a2,2,0,0,0,2,2H59a2,2,0,0,0,2-2V31h2V42H45V31Z"/><path fill="#73482e" d="M47,42v7a2,2,0,0,0,2,2H59a2,2,0,0,0,2-2V42h2V53H45V42Z"/><path fill="#73482e" d="M47,53v6a2,2,0,0,0,2,2H59a2,2,0,0,0,2-2V53h2V63H45V53Z"/><rect width="10" height="2" x="5" y="47" fill="#80786a"/><rect width="6" height="1" x="29" y="43" fill="#b6bda1"/><path fill="#586957" d="M9,26V22H7v9h5V29A3,3,0,0,1,9,26Z"/><path fill="#cdc3b4" d="M43,30a6,6,0,0,1-6-6V23H35v6a2.006,2.006,0,0,0,2,2h6a2,2,0,0,0,1.721-1Z"/><path fill="#cdc3b4" d="M27,30a6,6,0,0,1-6-6V23H19v6a2.006,2.006,0,0,0,2,2h6a2,2,0,0,0,1.721-1Z"/><path fill="#73482e" d="M21,14v1a2,2,0,0,0,2,2H41a2,2,0,0,0,2-2V14h2v4H19V14Z"/><path fill="#73482e" d="M27,1V3a2,2,0,0,0,2,2h6a2,2,0,0,0,2-2V1h2V6H25V1Z"/><path fill="#70695b" d="M31.708,12A4.146,4.146,0,0,1,28,6H25l-4,8H43l-1-2Z"/><path fill="#965b27" d="M56,35H52a.986.986,0,0,1-.847-.5A.977.977,0,0,0,51,35a1,1,0,0,0,1,1h4a1,1,0,0,0,1-1,.977.977,0,0,0-.153-.5A.986.986,0,0,1,56,35Z"/><path fill="#965b27" d="M56,46H52a.986.986,0,0,1-.847-.5A.977.977,0,0,0,51,46a1,1,0,0,0,1,1h4a1,1,0,0,0,1-1,.977.977,0,0,0-.153-.5A.986.986,0,0,1,56,46Z"/><path fill="#965b27" d="M56,56H52a.986.986,0,0,1-.847-.5A.977.977,0,0,0,51,56a1,1,0,0,0,1,1h4a1,1,0,0,0,1-1,.977.977,0,0,0-.153-.5A.986.986,0,0,1,56,56Z"/><path fill="#80786a" d="M11,39H9a.986.986,0,0,1-.847-.5A.977.977,0,0,0,8,39a1,1,0,0,0,1,1h2a1,1,0,0,0,1-1,.977.977,0,0,0-.153-.5A.986.986,0,0,1,11,39Z"/><rect width="14" height="1" x="47" y="53" fill="#d48137"/><rect width="14" height="1" x="47" y="42" fill="#d48137"/><rect width="14" height="1" x="47" y="31" fill="#d48137"/><rect width="16" height="1" x="2" y="31" fill="#d48137"/><path fill="#73482e" d="M18,31V60a1,1,0,0,1-1,1H3a1,1,0,0,1-1-1V31H1V63H19V31Z"/><path fill="#afa59b" d="M36.212,7.307a.585.585,0,0,0-.045.054.935.935,0,0,0-.1.9,4.371,4.371,0,0,0,1.284,1.6,6.888,6.888,0,0,0,1.053.8,1.487,1.487,0,0,0,1.017.331.759.759,0,0,0,.514-.464,1.633,1.633,0,0,0,.029-.784A4.583,4.583,0,0,0,39.231,7.7a1.74,1.74,0,0,0-1.8-.675C37.09,7.057,36.477,7.034,36.212,7.307Z"/><path fill="#f7f3eb" d="M42.266,25.455c-.37.434-.273,1.048-.185,1.734a2.867,2.867,0,0,0,.6,1.619.5.5,0,0,0,.469.18.783.783,0,0,0,.4-.426A5.177,5.177,0,0,0,44,26.378a2.465,2.465,0,0,0-.083-.845c-.264-.776-1.061-.568-1.488-.231A1.113,1.113,0,0,0,42.266,25.455Z"/><path fill="#f7f3eb" d="M26.266,25.455c-.37.434-.273,1.048-.185,1.734a2.867,2.867,0,0,0,.6,1.619.5.5,0,0,0,.469.18.783.783,0,0,0,.4-.426A5.177,5.177,0,0,0,28,26.378a2.465,2.465,0,0,0-.083-.845c-.264-.776-1.061-.568-1.488-.231A1.113,1.113,0,0,0,26.266,25.455Z"/><path d="M63,30H58V22a1,1,0,0,0-1-1V18H55v3H54V15H52v6a1,1,0,0,0-1,1v8H45.816A2.966,2.966,0,0,0,46,29V23.414l1.707-1.707-1.414-1.414L44.586,22H35.414l-1.707-1.707-1.414,1.414L34,23.414V29a2.966,2.966,0,0,0,.184,1H29.816A2.966,2.966,0,0,0,30,29V23.414l1.707-1.707-1.414-1.414L28.586,22H19.414l-1.707-1.707-1.414,1.414L18,23.414V29a2.966,2.966,0,0,0,.184,1H13V22a1,1,0,0,0-1-1V18H10v3H9V15H7v6a1,1,0,0,0-1,1v8H1a1,1,0,0,0-1,1v3H2V32H18V62H2V40H0V63a1,1,0,0,0,1,1H63a1,1,0,0,0,1-1V31A1,1,0,0,0,63,30ZM8,23h3v7H8Zm45,0h3v7H53ZM20,32H44v6H20Zm16-3V24h8v5a1,1,0,0,1-1,1H37A1,1,0,0,1,36,29ZM20,24h8v5a1,1,0,0,1-1,1H21a1,1,0,0,1-1-1Zm0,16H44V62H20ZM46,62V53H58V51H46V43h2V41H46V32H62v9H50v2H62v8H60v2h2v9Z"/><rect width="2" height="2" y="36"/><path d="M19,19h3V17H20V15H44v2H28v2H45a1,1,0,0,0,1-1V14a1,1,0,0,0-1-1H43.618L40,5.764V1a1,1,0,0,0-1-1H25a1,1,0,0,0-1,1V5.764L20.382,13H19a1,1,0,0,0-1,1v4A1,1,0,0,0,19,19ZM26,2H38V5H26Zm-.382,5H38.382l3,6H22.618Z"/><rect width="2" height="2" x="24" y="17"/><rect width="2" height="2" x="23" y="34"/><rect width="2" height="2" x="27" y="34"/><rect width="2" height="2" x="31" y="34"/><rect width="2" height="2" x="35" y="34"/><rect width="2" height="2" x="39" y="34"/><path d="M41,42H23a1,1,0,0,0-1,1V59a1,1,0,0,0,1,1H41a1,1,0,0,0,1-1V43A1,1,0,0,0,41,42ZM28,44h8v2H28ZM40,58H24V44h2v3a1,1,0,0,0,1,1H37a1,1,0,0,0,1-1V44h2Z"/><rect width="6" height="2" x="51" y="33"/><rect width="6" height="2" x="51" y="44"/><rect width="6" height="2" x="51" y="54"/><path d="M15,50a1,1,0,0,0,1-1V35a1,1,0,0,0-1-1H5a1,1,0,0,0-1,1V49a1,1,0,0,0,1,1ZM6,36h8V48H6Z"/><rect width="4" height="2" x="8" y="37"/></g></svg>