<svg xmlns="http://www.w3.org/2000/svg"  viewBox="0 0 64 64" width="64px" height="64px"><path d="M 32 6 C 17.98 6 6.5592969 17.090469 6.0292969 30.980469 L 21.029297 30.699219 C 21.439297 25.269219 25.97 21 31.5 21 C 36.9 21 41.349453 25.070312 41.939453 30.320312 L 57.919922 30.019531 C 56.899922 16.589531 45.69 6 32 6 z M 32 24 C 27.582 24 24 27.582 24 32 C 24 36.418 27.582 40 32 40 C 36.418 40 40 36.418 40 32 C 40 27.582 36.418 24 32 24 z M 32 27 C 34.761 27 37 29.239 37 32 C 37 34.761 34.761 37 32 37 C 29.239 37 27 34.761 27 32 C 27 29.239 29.239 27 32 27 z M 32 29 A 3 3 0 0 0 32 35 A 3 3 0 0 0 32 29 z M 6.0292969 33.019531 C 6.5592969 46.909531 17.98 58 32 58 C 45.69 58 56.899922 47.410469 57.919922 33.980469 L 41.849609 33.679688 C 41.049609 38.399687 36.95 42 32 42 L 31.5 42 C 26.31 42 22.010156 38.240781 21.160156 33.300781 L 6.0292969 33.019531 z M 10.330078 36 L 19.039062 37.259766 C 21.139063 42.419766 26.22 46 32 46 C 37.64 46 42.559531 42.680234 44.769531 37.740234 L 53.460938 36.990234 L 53.189453 37.890625 C 50.589453 47.200625 41.98 55 32 55 C 21.59 55 12.889609 46.859375 10.599609 37.109375 L 10.330078 36 z"/></svg>